# xmcd
#
# Track frame offsets:
#	150
#	14743
#	26395
#	39464
#	54373
#	64859
#	79549
#	89492
#	97101
#	108188
#	122731
#	134934
#	148402
#	162933
#	174019
#	189601
#	196498
#	207220
#	217644
#	230192
#	243342
#	259129
#	274053
#	287625
#	307265
#	314038
#
# Disc length: 4228 seconds
#
# Revision: 1
# Processed by: cddbd v1.5.2PL0 Copyright (c) Steve Scherf et al.
# Submitted via: audiograbber 1.83.01
#
DISCID=8a10821a
DTITLE=Roy Rogers, Jr. and Dustin Roy Rogers - Live 2011
DYEAR=2011
DGENRE=Country
TTITLE0=Ghost Riders In The Sky
TTITLE1=Will There Be Sagebrush In Heaven
TTITLE2=Blue Shadows On The Trail
TTITLE3=Gringos Guitar
TTITLE4=Call Of The Wild
TTITLE5=Carry Me Back To The Lone Prairie
TTITLE6=Cowpoke
TTITLE7=Blue Sky Way Out Yonder
TTITLE8=Can You Hear Those Pioneers
TTITLE9=Along The Cimarron
TTITLE10=Man Of Constant Sorrow
TTITLE11=Cowboy True
TTITLE12=Pecos Bill
TTITLE13=Night Guard
TTITLE14=King Of The Cowboys
TTITLE15=When Payday Rolls Around
TTITLE16=The Lillies Grow High
TTITLE17=My Adobe Hacienda
TTITLE18=Cool Water
TTITLE19=Tumbling Tumbleweeds
TTITLE20=As Shes Walking Away
TTITLE21=Power In The Blood
TTITLE22=Jesus Loves Me
TTITLE23=Til The Last Shots Fired
TTITLE24=Happy Trails
TTITLE25=Show Close Music
EXTD=Was sold at the Roy Rogers 100th Birthday Celebration in Apple Valley, Cal
EXTD=ifornia on November 5th, 2011
EXTT0=
EXTT1=
EXTT2=
EXTT3=
EXTT4=
EXTT5=
EXTT6=
EXTT7=
EXTT8=
EXTT9=
EXTT10=
EXTT11=
EXTT12=
EXTT13=
EXTT14=
EXTT15=
EXTT16=
EXTT17=
EXTT18=
EXTT19=
EXTT20=
EXTT21=
EXTT22=
EXTT23=
EXTT24=
EXTT25=
PLAYORDER=
